<?xml version="1.0" encoding="UTF-8" standalone="no"?>
<svg version="1.1" id="Layer_1" xmlns="http://www.w3.org/2000/svg" xmlns:xlink="http://www.w3.org/1999/xlink" 
     x="0px" y="0px" width="308.7612359841165" height="308.7612359841165" viewBox="0 0 794 792" 
     enable-background="new 0 0 794 792" xml:space="preserve">
<path fill="#020102" opacity="1.000000" stroke="none" 
	d="
M795.000000,2.000000 
	C795.000000,265.597443 795.000000,529.194885 795.000000,793.000000 
	C530.971985,793.000000 266.943970,793.000000 2.595518,792.555725 
	C2.289327,791.445312 2.315961,790.779175 2.315966,790.113037 
	C2.318204,528.048096 2.318956,265.983185 2.305909,3.918244 
	C2.305860,2.945491 2.106352,1.972748 2.000000,1.000000 
	C2.444444,1.000000 2.888889,1.000000 3.971039,1.282113 
	C6.927936,1.679083 9.247122,1.894408 11.566320,1.894544 
	C270.211914,1.909699 528.857544,1.908541 787.503113,1.912573 
	C790.002075,1.912612 792.501038,1.969599 795.000000,2.000000 
M585.500000,786.999390 
	C652.944092,786.999390 720.388123,786.999390 787.859741,786.999390 
	C787.859741,527.752380 787.859741,269.028137 787.859741,10.365828 
	C528.859314,10.365828 270.145874,10.365828 11.425084,10.365828 
	C11.425084,269.328857 11.425084,527.926636 11.425084,786.999390 
	C202.602585,786.999390 393.551300,786.999390 585.500000,786.999390 
z"/>
<path fill="#E3B9E9" opacity="1.000000" stroke="none" 
	d="
M1.500000,1.000000 
	C2.106352,1.972748 2.305860,2.945491 2.305909,3.918244 
	C2.318956,265.983185 2.318204,528.048096 2.315966,790.113037 
	C2.315961,790.779175 2.289327,791.445312 2.137564,792.555725 
	C1.666664,792.833618 1.056183,792.684692 1.044454,792.498108 
	C0.961037,791.170898 1.000000,789.835938 1.000000,788.503479 
	C1.000000,526.002319 1.000000,263.501160 1.500000,1.000000 
z"/>
<path fill="#493C4C" opacity="1.000000" stroke="none" 
	d="
M795.000000,1.500000 
	C792.501038,1.969599 790.002075,1.912612 787.503113,1.912573 
	C528.857544,1.908541 270.211914,1.909699 11.566320,1.894544 
	C9.247122,1.894408 6.927936,1.679083 4.304372,1.282113 
	C267.666656,1.000000 531.333313,1.000000 795.000000,1.500000 
z"/>
<path fill="#E2B8E8" opacity="1.000000" stroke="none" 
	d="
M585.000000,786.999390 
	C393.551300,786.999390 202.602585,786.999390 11.425084,786.999390 
	C11.425084,527.926636 11.425084,269.328857 11.425084,10.365828 
	C270.145874,10.365828 528.859314,10.365828 787.859741,10.365828 
	C787.859741,269.028137 787.859741,527.752380 787.859741,786.999390 
	C720.388123,786.999390 652.944092,786.999390 585.000000,786.999390 
M28.126879,643.499939 
	C28.126879,685.254150 28.126879,727.008362 28.126879,768.682373 
	C275.492096,768.682373 522.203003,768.682373 768.795532,768.682373 
	C768.795532,521.661865 768.795532,274.957642 768.795532,28.331326 
	C521.787781,28.331326 275.089996,28.331326 28.126879,28.331326 
	C28.126879,233.273987 28.126879,437.886932 28.126879,643.499939 
z"/>
<path fill="#010101" opacity="1.000000" stroke="none" 
	d="
M28.126879,642.999878 
	C28.126879,437.886932 28.126879,233.273987 28.126879,28.331326 
	C275.089996,28.331326 521.787781,28.331326 768.795532,28.331326 
	C768.795532,274.957642 768.795532,521.661865 768.795532,768.682373 
	C522.203003,768.682373 275.492096,768.682373 28.126879,768.682373 
	C28.126879,727.008362 28.126879,685.254150 28.126879,642.999878 
M67.523743,368.499634 
	C67.523743,448.234680 67.523743,527.969727 67.523743,608.250183 
	C95.371880,608.250183 122.588028,608.250183 150.193939,608.250183 
	C150.193939,649.042358 150.193939,689.288147 150.193939,729.580322 
	C316.335632,729.580322 482.076782,729.580322 648.300171,729.580322 
	C648.300171,689.257690 648.300171,649.180481 648.300171,608.542969 
	C675.672668,608.542969 702.571045,608.542969 729.608765,608.542969 
	C729.608765,496.590973 729.608765,385.203217 729.608765,273.377869 
	C702.536072,273.377869 675.771606,273.377869 648.383301,273.377869 
	C648.383301,204.578125 648.383301,136.213364 648.383301,67.681046 
	C481.992798,67.681046 316.232300,67.681046 149.928650,67.681046 
	C149.928650,134.712708 149.928650,201.600082 149.928650,269.004181 
	C122.158707,269.004181 94.927505,269.004181 67.523705,269.004181 
	C67.523705,302.182404 67.523705,334.841003 67.523743,368.499634 
M67.922585,185.500000 
	C67.922585,146.489288 67.922585,107.478577 67.922585,68.467857 
	C67.721931,68.468628 67.521286,68.469398 67.320633,68.470169 
	C67.320633,134.593918 67.320633,200.717667 67.320633,266.841431 
	C67.521233,266.841827 67.721825,266.842255 67.922424,266.842651 
	C67.922424,240.061768 67.922424,213.280884 67.922585,185.500000 
M67.157570,714.492798 
	C67.157570,719.119934 67.157570,723.747131 67.157570,728.374268 
	C67.326439,728.368958 67.495316,728.363708 67.664185,728.358459 
	C67.664185,688.995178 67.664185,649.631958 67.664185,610.268738 
	C67.495430,610.268555 67.326683,610.268311 67.157928,610.268127 
	C67.157928,644.677307 67.157928,679.086426 67.157570,714.492798 
z"/>
<path fill="#E3B9E9" opacity="1.000000" stroke="none" 
	d="
M67.523727,367.999634 
	C67.523705,334.841003 67.523705,302.182404 67.523705,269.004181 
	C94.927505,269.004181 122.158707,269.004181 149.928650,269.004181 
	C149.928650,201.600082 149.928650,134.712708 149.928650,67.681046 
	C316.232300,67.681046 481.992798,67.681046 648.383301,67.681046 
	C648.383301,136.213364 648.383301,204.578125 648.383301,273.377869 
	C675.771606,273.377869 702.536072,273.377869 729.608765,273.377869 
	C729.608765,385.203217 729.608765,496.590973 729.608765,608.542969 
	C702.571045,608.542969 675.672668,608.542969 648.300171,608.542969 
	C648.300171,649.180481 648.300171,689.257690 648.300171,729.580322 
	C482.076782,729.580322 316.335632,729.580322 150.193939,729.580322 
	C150.193939,689.288147 150.193939,649.042358 150.193939,608.250183 
	C122.588028,608.250183 95.371880,608.250183 67.523743,608.250183 
	C67.523743,527.969727 67.523743,448.234680 67.523727,367.999634 
M263.936005,389.500000 
	C263.936005,453.246399 263.936005,516.992798 263.936005,580.711060 
	C353.908936,580.711060 443.293945,580.711060 532.556885,580.711060 
	C532.556885,504.724579 532.556885,429.033051 532.556885,353.399933 
	C442.898926,353.399933 353.645538,353.399933 263.936005,353.399933 
	C263.936005,365.257538 263.936005,376.878754 263.936005,389.500000 
M457.084015,167.499969 
	C457.084015,189.917511 457.084015,212.335068 457.084015,234.760925 
	C472.560028,234.760925 487.322144,234.760925 502.258484,234.760925 
	C502.258484,231.626144 502.258484,228.738220 502.258484,225.309143 
	C495.521851,225.309143 489.107849,225.309143 482.202606,225.309143 
	C482.202606,179.544128 482.202606,134.323318 482.202606,88.707542 
	C470.394775,88.707542 459.097443,88.869942 447.809875,88.609596 
	C444.377045,88.530418 442.937378,89.823174 441.552582,92.737396 
	C428.718231,119.746536 415.725677,146.680527 402.763428,173.628830 
	C401.929199,175.363220 400.965393,177.035294 399.795044,179.238632 
	C398.668579,176.981735 397.849030,175.392532 397.075134,173.781372 
	C384.055023,146.674744 370.998627,119.585358 358.088135,92.426598 
	C356.756531,89.625343 355.214935,88.567429 352.080261,88.629990 
	C341.754059,88.836082 331.421112,88.693886 321.090881,88.725937 
	C319.839600,88.729813 318.589142,88.980850 316.938629,89.160942 
	C316.938629,134.741409 316.938629,179.983780 316.938629,225.649811 
	C310.067474,225.649811 303.637299,225.649811 297.295288,225.649811 
	C297.295288,228.991577 297.295288,231.900665 297.295288,234.746292 
	C312.377441,234.746292 327.137482,234.746292 342.273560,234.746292 
	C342.273560,197.784271 342.273560,161.076035 342.273560,124.367805 
	C343.860840,125.460907 344.632172,126.806320 345.326111,128.190536 
	C359.615112,156.693359 374.108643,185.097229 388.011627,213.787231 
	C391.085022,220.129547 394.326416,223.330399 401.690521,222.361526 
	C405.320496,221.883942 407.445374,221.341431 409.237274,217.721497 
	C423.978729,187.941223 439.008423,158.303604 453.954010,128.624390 
	C454.706665,127.129738 455.490082,125.650566 456.259186,124.164192 
	C456.534119,124.295380 456.809082,124.426567 457.084015,124.557762 
	C457.084015,138.538498 457.084015,152.519226 457.084015,167.499969 
z"/>
<path fill="#554658" opacity="1.000000" stroke="none" 
	d="
M67.922501,186.000000 
	C67.922424,213.280884 67.922424,240.061768 67.922424,266.842651 
	C67.721825,266.842255 67.521233,266.841827 67.320633,266.841431 
	C67.320633,200.717667 67.320633,134.593918 67.320633,68.470169 
	C67.521286,68.469398 67.721931,68.468628 67.922585,68.467857 
	C67.922585,107.478577 67.922585,146.489288 67.922501,186.000000 
z"/>
<path fill="#554658" opacity="1.000000" stroke="none" 
	d="
M67.157745,713.994202 
	C67.157928,679.086426 67.157928,644.677307 67.157928,610.268127 
	C67.326683,610.268311 67.495430,610.268555 67.664185,610.268738 
	C67.664185,649.631958 67.664185,688.995178 67.664185,728.358459 
	C67.495316,728.363708 67.326439,728.368958 67.157570,728.374268 
	C67.157570,723.747131 67.157570,719.119934 67.157745,713.994202 
z"/>
<path fill="#030203" opacity="1.000000" stroke="none" 
	d="
M263.936005,389.000000 
	C263.936005,376.878754 263.936005,365.257538 263.936005,353.399933 
	C353.645538,353.399933 442.898926,353.399933 532.556885,353.399933 
	C532.556885,429.033051 532.556885,504.724579 532.556885,580.711060 
	C443.293945,580.711060 353.908936,580.711060 263.936005,580.711060 
	C263.936005,516.992798 263.936005,453.246399 263.936005,389.000000 
M505.453156,560.157593 
	C507.560028,560.157593 509.666870,560.157593 511.789917,560.157593 
	C511.789917,504.767181 511.789917,449.913330 511.789917,395.194397 
	C435.929413,395.194397 360.401123,395.194397 284.955994,395.194397 
	C284.955994,450.279724 284.955994,505.012665 284.955994,560.157593 
	C358.295166,560.157593 431.377655,560.157593 505.453156,560.157593 
z"/>
<path fill="#020102" opacity="1.000000" stroke="none" 
	d="
M457.084015,166.999969 
	C457.084015,152.519226 457.084015,138.538498 457.084015,124.557762 
	C456.809082,124.426567 456.534119,124.295380 456.259186,124.164192 
	C455.490082,125.650566 454.706665,127.129738 453.954010,128.624390 
	C439.008423,158.303604 423.978729,187.941223 409.237274,217.721497 
	C407.445374,221.341431 405.320496,221.883942 401.690521,222.361526 
	C394.326416,223.330399 391.085022,220.129547 388.011627,213.787231 
	C374.108643,185.097229 359.615112,156.693359 345.326111,128.190536 
	C344.632172,126.806320 343.860840,125.460907 342.273560,124.367805 
	C342.273560,161.076035 342.273560,197.784271 342.273560,234.746292 
	C327.137482,234.746292 312.377441,234.746292 297.295288,234.746292 
	C297.295288,231.900665 297.295288,228.991577 297.295288,225.649811 
	C303.637299,225.649811 310.067474,225.649811 316.938629,225.649811 
	C316.938629,179.983780 316.938629,134.741409 316.938629,89.160942 
	C318.589142,88.980850 319.839600,88.729813 321.090881,88.725937 
	C331.421112,88.693886 341.754059,88.836082 352.080261,88.629990 
	C355.214935,88.567429 356.756531,89.625343 358.088135,92.426598 
	C370.998627,119.585358 384.055023,146.674744 397.075134,173.781372 
	C397.849030,175.392532 398.668579,176.981735 399.795044,179.238632 
	C400.965393,177.035294 401.929199,175.363220 402.763428,173.628830 
	C415.725677,146.680527 428.718231,119.746536 441.552582,92.737396 
	C442.937378,89.823174 444.377045,88.530418 447.809875,88.609596 
	C459.097443,88.869942 470.394775,88.707542 482.202606,88.707542 
	C482.202606,134.323318 482.202606,179.544128 482.202606,225.309143 
	C489.107849,225.309143 495.521851,225.309143 502.258484,225.309143 
	C502.258484,228.738220 502.258484,231.626144 502.258484,234.760925 
	C487.322144,234.760925 472.560028,234.760925 457.084015,234.760925 
	C457.084015,212.335068 457.084015,189.917511 457.084015,166.999969 
z"/>
<path fill="#E3B9E9" opacity="1.000000" stroke="none" 
	d="
M504.956665,560.157593 
	C431.377655,560.157593 358.295166,560.157593 284.955994,560.157593 
	C284.955994,505.012665 284.955994,450.279724 284.955994,395.194397 
	C360.401123,395.194397 435.929413,395.194397 511.789917,395.194397 
	C511.789917,449.913330 511.789917,504.767181 511.789917,560.157593 
	C509.666870,560.157593 507.560028,560.157593 504.956665,560.157593 
M323.842712,445.598236 
	C331.829651,448.801178 339.816589,452.004120 348.544525,455.504211 
	C334.996216,460.868225 322.174164,465.868073 309.442322,471.088013 
	C307.948486,471.700500 305.967041,473.467773 305.890747,474.796112 
	C305.520782,481.236237 305.723785,487.709259 305.723785,494.708221 
	C307.953125,493.943939 309.671173,493.432190 311.331024,492.773773 
	C326.758392,486.654510 342.189819,480.545105 357.589264,474.356079 
	C364.017731,471.772461 370.371979,469.004150 376.759949,466.319855 
	C376.794739,459.168854 376.830139,452.017883 376.860413,444.866852 
	C376.861115,444.703247 376.804077,444.539398 376.694000,443.940613 
	C353.357117,434.682343 329.802216,425.337555 305.983124,415.888000 
	C305.870911,417.352112 305.712677,418.336060 305.733856,419.316132 
	C305.869690,425.608154 303.902222,433.295258 306.828064,437.786255 
	C309.586548,442.020294 317.511261,442.888550 323.842712,445.598236 
M388.523712,515.838135 
	C408.254425,515.838135 427.985138,515.838135 447.755920,515.838135 
	C447.755920,508.580505 447.755920,501.881012 447.755920,495.234070 
	C424.041443,495.234070 400.666412,495.234070 377.279541,495.234070 
	C377.279541,502.174347 377.279541,508.870697 377.279541,515.838135 
	C380.928162,515.838135 384.230499,515.838135 388.523712,515.838135 
z"/>
<path fill="#030203" opacity="1.000000" stroke="none" 
	d="
M323.503021,445.417847 
	C317.511261,442.888550 309.586548,442.020294 306.828064,437.786255 
	C303.902222,433.295258 305.869690,425.608154 305.733856,419.316132 
	C305.712677,418.336060 305.870911,417.352112 305.983124,415.888000 
	C329.802216,425.337555 353.357117,434.682343 376.694000,443.940613 
	C376.804077,444.539398 376.861115,444.703247 376.860413,444.866852 
	C376.830139,452.017883 376.794739,459.168854 376.759949,466.319824 
	C370.371979,469.004150 364.017731,471.772461 357.589264,474.356079 
	C342.189819,480.545105 326.758392,486.654510 311.331024,492.773773 
	C309.671173,493.432190 307.953125,493.943939 305.723785,494.708221 
	C305.723785,487.709259 305.520782,481.236237 305.890747,474.796112 
	C305.967041,473.467773 307.948486,471.700500 309.442322,471.088013 
	C322.174164,465.868073 334.996216,460.868225 348.544525,455.504211 
	C339.816589,452.004120 331.829651,448.801178 323.503021,445.417847 
z"/>
<path fill="#030203" opacity="1.000000" stroke="none" 
	d="
M388.028259,515.838135 
	C384.230499,515.838135 380.928162,515.838135 377.279541,515.838135 
	C377.279541,508.870697 377.279541,502.174347 377.279541,495.234070 
	C400.666412,495.234070 424.041443,495.234070 447.755920,495.234070 
	C447.755920,501.881012 447.755920,508.580505 447.755920,515.838135 
	C427.985138,515.838135 408.254425,515.838135 388.028259,515.838135 
z"/>
</svg>